<svg width="226" height="184" viewBox="0 0 226 184" fill="none" xmlns="http://www.w3.org/2000/svg">
<path d="M222.299 92.2813C222.299 141.037 181.246 180.75 130.368 180.75C79.4906 180.75 38.4379 141.037 38.4379 92.2813C38.4379 43.5253 79.4906 3.81226 130.368 3.81226C181.246 3.81226 222.299 43.5253 222.299 92.2813Z" fill="white" stroke="url(#paint0_linear_349_3)" stroke-width="6"/>
<path d="M79.3667 45.8486V46.625C78.366 46.5215 77.2446 46.6768 76.0024 47.0908C74.7948 47.5049 74.0701 48.1087 73.8286 48.9023C73.6216 49.696 73.5181 51.5765 73.5181 54.5439V113.082C73.5181 116.257 73.6388 118.206 73.8804 118.931C74.1564 119.621 74.6567 120.207 75.3813 120.69C76.1405 121.139 77.4689 121.363 79.3667 121.363V122.088H59.0259V121.363C61.5793 121.363 63.1665 120.88 63.7876 119.914C64.4087 118.913 64.7192 116.671 64.7192 113.186V55.2168C64.7192 51.5938 64.3742 49.2301 63.6841 48.126C62.994 46.9873 61.4412 46.487 59.0259 46.625V45.8486H79.3667ZM147.066 43.209L143.443 52.4219H142.718C142.856 51.8698 142.925 51.1279 142.925 50.1963C142.925 49.4027 142.632 48.9023 142.045 48.6953C141.493 48.4538 140.596 48.333 139.354 48.333H119.427V113.6C119.427 116.291 119.634 118.137 120.048 119.138C120.497 120.104 121.083 120.725 121.808 121.001C122.567 121.243 123.775 121.363 125.431 121.363V122.088H104.78V121.363C107.368 121.191 108.989 120.69 109.645 119.862C110.301 119.034 110.628 117.309 110.628 114.687V48.333H91.5298C89.5975 48.333 88.3381 48.4538 87.7515 48.6953C87.1649 48.9023 86.8716 49.4544 86.8716 50.3516C86.8716 50.8001 87.0096 51.4902 87.2856 52.4219H86.561L82.938 43.209H83.6626C84.2837 44.4512 84.8875 45.2103 85.4741 45.4863C86.0952 45.7279 87.4064 45.8486 89.4077 45.8486H140.079C142.08 45.8486 143.512 45.7279 144.375 45.4863C145.272 45.2103 145.927 44.4512 146.341 43.209H147.066ZM182.624 86.9961H160.368L148.826 115.825C148.032 117.896 147.635 119.172 147.635 119.655C147.635 120.794 148.481 121.363 150.171 121.363V122.088H138.836V121.363C140.355 121.363 141.631 121.001 142.667 120.276C143.702 119.517 144.84 117.585 146.083 114.479L173.721 44.71H175.015L202.24 112.099C202.24 112.444 202.93 114.083 204.31 117.016C205.725 119.914 207.864 121.363 210.728 121.363V122.088H192.923V121.363C194.545 121.363 195.356 120.725 195.356 119.448C195.356 118.586 194.959 117.205 194.166 115.308C194.028 115.17 193.907 114.945 193.803 114.635C193.734 114.29 193.682 114.117 193.648 114.117L182.624 86.9961ZM161.092 84.874H181.692L171.392 58.8916L161.092 84.874Z" fill="black"/>
<rect x="50.2864" y="79.1868" width="152.295" height="26.1892" fill="white"/>
<path d="M65.5648 99.4263C65.5648 99.1903 65.5974 98.9583 65.6625 98.7305C65.7357 98.4945 65.7723 98.2463 65.7723 97.9858L65.5892 83.4106C65.5974 82.7922 65.7032 82.3364 65.9066 82.0435C66.1182 81.7424 66.4763 81.5918 66.9808 81.5918C67.2575 81.5918 67.4895 81.6162 67.6766 81.665C67.8638 81.7139 68.0144 81.7993 68.1283 81.9214C68.2422 82.0435 68.3195 82.2021 68.3602 82.3975C68.4091 82.5928 68.4335 82.8369 68.4335 83.1299V84.9609C68.4335 85.4655 68.4294 86.0677 68.4213 86.7676C68.4213 87.4593 68.4213 88.1999 68.4213 88.9893C68.4213 89.7786 68.4213 90.5965 68.4213 91.4429C68.4213 92.2811 68.4213 93.103 68.4213 93.9087C68.4213 94.7062 68.4213 95.4631 68.4213 96.1792C68.4213 96.8953 68.4253 97.522 68.4335 98.0591C69.3856 98.0591 70.1872 98.0591 70.8383 98.0591C71.4974 98.0509 72.0386 98.0387 72.4618 98.0225C72.6897 98.0062 72.9175 97.9818 73.1454 97.9492C73.3733 97.9085 73.6174 97.8882 73.8778 97.8882C74.4149 97.8882 74.8218 98.0103 75.0985 98.2544C75.3833 98.4985 75.5258 98.8566 75.5258 99.3286C75.5258 99.646 75.4647 99.9023 75.3427 100.098C75.2206 100.285 75.0578 100.431 74.8544 100.537C74.6591 100.635 74.4353 100.7 74.183 100.732C73.9388 100.765 73.6906 100.781 73.4384 100.781H66.9564C66.753 100.781 66.5658 100.765 66.3949 100.732C66.224 100.692 66.0775 100.623 65.9554 100.525C65.8334 100.427 65.7357 100.293 65.6625 100.122C65.5974 99.943 65.5648 99.7111 65.5648 99.4263ZM92.1835 95.2759C92.3381 95.8862 92.566 96.3989 92.8671 96.814C93.1763 97.2209 93.5222 97.5505 93.9047 97.8027C94.2872 98.055 94.69 98.2381 95.1132 98.3521C95.5445 98.4578 95.9636 98.5107 96.3705 98.5107C97.0052 98.5107 97.5708 98.4578 98.0673 98.3521C98.5637 98.2381 98.9869 98.1038 99.3368 97.9492C99.6949 97.7865 99.9838 97.6196 100.203 97.4487C100.423 97.2778 100.578 97.1273 100.667 96.9971C100.749 96.875 100.838 96.7611 100.936 96.6553C101.042 96.5413 101.152 96.4437 101.266 96.3623C101.388 96.2728 101.506 96.2036 101.62 96.1548C101.742 96.106 101.856 96.0815 101.961 96.0815C102.368 96.0815 102.682 96.2036 102.901 96.4478C103.129 96.6838 103.243 97.0052 103.243 97.4121C103.243 97.5667 103.186 97.762 103.072 97.998C102.958 98.234 102.747 98.4945 102.437 98.7793C102.096 99.0967 101.713 99.3978 101.29 99.6826C100.875 99.9674 100.415 100.22 99.9105 100.439C99.406 100.651 98.8566 100.818 98.2626 100.94C97.6766 101.07 97.0419 101.135 96.3583 101.135C95.5526 101.135 94.8161 101.025 94.1488 100.806C93.4815 100.594 92.8833 100.305 92.3544 99.939C91.8254 99.5646 91.3656 99.1333 90.975 98.645C90.5844 98.1567 90.2588 97.6359 89.9984 97.0825C89.738 96.5291 89.5427 95.9595 89.4125 95.3735C89.2823 94.7876 89.2172 94.2179 89.2172 93.6646C89.2172 92.4601 89.4125 91.3737 89.8031 90.4053C90.1937 89.4287 90.7308 88.5946 91.4144 87.9028C92.098 87.2111 92.9078 86.6781 93.8436 86.3037C94.7795 85.9294 95.7927 85.7422 96.8832 85.7422C97.6644 85.7422 98.3969 85.8602 99.0804 86.0962C99.764 86.3241 100.37 86.6496 100.899 87.0728C101.436 87.4878 101.884 87.9883 102.242 88.5742C102.608 89.152 102.865 89.7909 103.011 90.4907C103.174 90.6291 103.292 90.8122 103.365 91.04C103.446 91.2598 103.487 91.4795 103.487 91.6992C103.487 92.0654 103.361 92.3665 103.109 92.6025C102.865 92.8304 102.555 92.9891 102.181 93.0786C101.359 93.2902 100.537 93.4855 99.7152 93.6646C98.8933 93.8436 98.0673 94.0186 97.2372 94.1895C96.4071 94.3604 95.5689 94.5353 94.7225 94.7144C93.8843 94.8934 93.038 95.0806 92.1835 95.2759ZM91.976 93.0176C93.3594 92.6921 94.7592 92.3869 96.1752 92.1021C97.5912 91.8172 99.0316 91.4998 100.496 91.1499C100.358 90.7756 100.171 90.4215 99.9349 90.0879C99.6989 89.7461 99.4222 89.4491 99.1049 89.1968C98.7875 88.9445 98.4335 88.7451 98.0428 88.5986C97.6604 88.4521 97.2453 88.3789 96.7977 88.3789C96.106 88.3789 95.4753 88.4928 94.9056 88.7207C94.3441 88.9404 93.8558 89.2537 93.4408 89.6606C93.0258 90.0594 92.6921 90.5477 92.4398 91.1255C92.1875 91.6951 92.0329 92.3258 91.976 93.0176ZM117.581 93.457C117.581 92.3503 117.769 91.3208 118.143 90.3687C118.517 89.4165 119.03 88.5905 119.681 87.8906C120.34 87.1908 121.109 86.6414 121.988 86.2427C122.875 85.8439 123.831 85.6445 124.857 85.6445C125.378 85.6445 125.874 85.7056 126.346 85.8276C126.826 85.9497 127.27 86.1125 127.677 86.3159C128.092 86.5112 128.462 86.735 128.787 86.9873C129.121 87.2396 129.406 87.5 129.642 87.7686C129.634 87.6546 129.63 87.5326 129.63 87.4023C129.63 87.2721 129.63 87.1582 129.63 87.0605C129.63 86.8571 129.658 86.6699 129.715 86.499C129.772 86.32 129.862 86.1654 129.984 86.0352C130.106 85.9049 130.26 85.8032 130.448 85.73C130.635 85.6486 130.863 85.6079 131.131 85.6079C131.359 85.6079 131.563 85.6527 131.742 85.7422C131.929 85.8236 132.087 85.9294 132.218 86.0596C132.348 86.1816 132.45 86.3159 132.523 86.4624C132.596 86.6007 132.633 86.7269 132.633 86.8408C132.633 87.1175 132.616 87.3983 132.584 87.6831C132.559 87.9598 132.539 88.2406 132.523 88.5254C132.523 89.4206 132.515 90.214 132.498 90.9058C132.49 91.5894 132.478 92.2201 132.462 92.7979C132.446 93.1885 132.433 93.5954 132.425 94.0186C132.417 94.4336 132.413 94.8161 132.413 95.166C132.413 95.9554 132.413 96.582 132.413 97.0459C132.413 97.5098 132.433 97.8475 132.474 98.0591C132.547 98.0428 132.653 98.0062 132.791 97.9492C132.938 97.8923 133.072 97.8312 133.194 97.7661C133.308 97.7254 133.422 97.6847 133.536 97.644C133.65 97.6034 133.792 97.583 133.963 97.583C134.159 97.583 134.329 97.6278 134.476 97.7173C134.622 97.7987 134.745 97.9085 134.842 98.0469C134.948 98.1771 135.025 98.3276 135.074 98.4985C135.123 98.6613 135.147 98.82 135.147 98.9746C135.147 99.1943 135.094 99.4181 134.989 99.646C134.883 99.8657 134.688 100.024 134.403 100.122C134.159 100.212 133.91 100.305 133.658 100.403C133.406 100.5 133.149 100.59 132.889 100.671C132.637 100.753 132.38 100.822 132.12 100.879C131.868 100.936 131.607 100.964 131.339 100.964C131.021 100.964 130.761 100.899 130.557 100.769C130.354 100.639 130.195 100.472 130.081 100.269C129.967 100.057 129.886 99.825 129.837 99.5728C129.788 99.3205 129.76 99.0723 129.752 98.8281C129.5 99.1455 129.194 99.4425 128.836 99.7192C128.478 99.9959 128.084 100.24 127.652 100.452C127.221 100.663 126.757 100.83 126.261 100.952C125.772 101.074 125.268 101.135 124.747 101.135C123.689 101.135 122.721 100.944 121.842 100.562C120.963 100.171 120.206 99.6338 119.571 98.9502C118.945 98.2585 118.456 97.4447 118.106 96.5088C117.756 95.5729 117.581 94.5557 117.581 93.457ZM120.389 93.457C120.389 94.1162 120.487 94.751 120.682 95.3613C120.885 95.9717 121.174 96.5129 121.549 96.9849C121.931 97.4487 122.399 97.819 122.953 98.0957C123.506 98.3724 124.133 98.5107 124.832 98.5107C125.524 98.5107 126.151 98.3765 126.712 98.1079C127.274 97.8394 127.762 97.4894 128.177 97.0581C128.6 96.6268 128.946 96.1466 129.215 95.6177C129.483 95.0806 129.666 94.5435 129.764 94.0063V92.9321C129.675 92.4357 129.504 91.9108 129.251 91.3574C129.007 90.804 128.682 90.2954 128.275 89.8315C127.876 89.3595 127.396 88.973 126.834 88.6719C126.273 88.3626 125.638 88.208 124.93 88.208C124.263 88.208 123.652 88.3464 123.099 88.623C122.546 88.8916 122.065 89.266 121.659 89.7461C121.26 90.2181 120.946 90.7715 120.719 91.4062C120.499 92.041 120.389 92.7246 120.389 93.457ZM149.51 99.6948C149.51 99.41 149.514 99.1252 149.522 98.8403C149.53 98.5555 149.539 98.2422 149.547 97.9004V88.4888C149.547 88.2609 149.522 88.033 149.474 87.8052C149.425 87.5692 149.4 87.325 149.4 87.0728C149.4 86.6414 149.555 86.3118 149.864 86.084C150.173 85.8561 150.592 85.7422 151.121 85.7422C151.349 85.7422 151.549 85.7829 151.72 85.8643C151.891 85.9375 152.033 86.0352 152.147 86.1572C152.261 86.2793 152.346 86.4176 152.403 86.5723C152.46 86.7269 152.489 86.8856 152.489 87.0483C152.489 87.1867 152.476 87.3291 152.452 87.4756C152.436 87.6139 152.415 87.7523 152.391 87.8906C153.636 87.5814 154.694 87.3006 155.565 87.0483C156.444 86.7961 157.131 86.5885 157.628 86.4258C157.734 86.2386 157.88 86.0799 158.067 85.9497C158.263 85.8114 158.515 85.7422 158.824 85.7422C159.272 85.7422 159.626 85.8602 159.886 86.0962C160.155 86.3241 160.289 86.613 160.289 86.9629C160.289 87.1012 160.281 87.2437 160.265 87.3901C160.248 87.5366 160.24 87.6831 160.24 87.8296C160.191 88.326 160.179 88.8306 160.203 89.3433C160.236 89.856 160.273 90.3727 160.313 90.8936C160.33 91.0563 160.338 91.2313 160.338 91.4185C160.346 91.5975 160.35 91.7806 160.35 91.9678C160.35 92.1631 160.301 92.3258 160.203 92.4561C160.106 92.5863 159.98 92.6921 159.825 92.7734C159.679 92.8467 159.516 92.8996 159.337 92.9321C159.158 92.9647 158.983 92.981 158.812 92.981C158.568 92.981 158.364 92.9403 158.202 92.8589C158.039 92.7694 157.905 92.6595 157.799 92.5293C157.701 92.391 157.628 92.2404 157.579 92.0776C157.538 91.9067 157.518 91.7399 157.518 91.5771C157.518 91.2028 157.522 90.8244 157.53 90.4419C157.538 90.0513 157.546 89.624 157.555 89.1602C157.245 89.2334 156.818 89.3311 156.273 89.4531C155.736 89.5752 155.146 89.7054 154.503 89.8438C154.137 89.9333 153.774 90.0187 153.416 90.1001C153.058 90.1733 152.696 90.2507 152.33 90.332V98.3032L152.696 98.1934C152.859 98.1364 153.014 98.0876 153.16 98.0469C153.307 97.998 153.473 97.9655 153.661 97.9492C153.815 97.9655 153.966 98.0021 154.112 98.0591C154.267 98.116 154.401 98.1974 154.515 98.3032C154.637 98.409 154.735 98.5433 154.808 98.7061C154.881 98.8607 154.918 99.0397 154.918 99.2432C154.918 99.4303 154.885 99.6094 154.82 99.7803C154.763 99.9512 154.682 100.106 154.576 100.244C154.47 100.374 154.344 100.484 154.198 100.574C154.059 100.655 153.905 100.7 153.734 100.708C153.62 100.724 153.465 100.749 153.27 100.781C153.075 100.822 152.847 100.867 152.586 100.916C152.171 100.997 151.834 101.054 151.573 101.086C151.321 101.119 151.109 101.135 150.938 101.135C150.751 101.135 150.568 101.103 150.389 101.038C150.218 100.981 150.068 100.891 149.937 100.769C149.807 100.647 149.701 100.496 149.62 100.317C149.547 100.138 149.51 99.9308 149.51 99.6948ZM176.886 99.8779C176.886 99.7314 176.89 99.5809 176.898 99.4263C176.914 99.2716 176.93 99.1211 176.947 98.9746C176.971 98.7549 176.995 98.5148 177.02 98.2544C177.044 97.994 177.057 97.701 177.057 97.3755C177.057 96.7407 177.052 96.1426 177.044 95.5811C177.044 95.0114 177.036 94.4255 177.02 93.8232C177.02 93.807 177.02 93.7826 177.02 93.75C177.02 93.7093 177.016 93.632 177.008 93.5181C177.008 93.4041 177.004 93.2373 176.995 93.0176C176.995 92.7979 176.991 92.4886 176.983 92.0898C176.975 91.6911 176.963 91.1947 176.947 90.6006C176.939 89.9984 176.926 89.266 176.91 88.4033C176.804 88.4196 176.678 88.4359 176.532 88.4521C176.393 88.4603 176.226 88.4644 176.031 88.4644C175.885 88.4644 175.734 88.4399 175.579 88.3911C175.433 88.3423 175.295 88.269 175.164 88.1714C175.042 88.0656 174.941 87.9313 174.859 87.7686C174.786 87.5977 174.749 87.3901 174.749 87.146C174.749 86.7065 174.859 86.377 175.079 86.1572C175.307 85.9294 175.584 85.8154 175.909 85.8154C176.039 85.8154 176.165 85.8317 176.287 85.8643C176.41 85.8968 176.54 85.9131 176.678 85.9131C176.841 85.9131 177.008 85.909 177.179 85.9009C177.349 85.8927 177.516 85.8805 177.679 85.8643C177.858 85.848 178.033 85.8358 178.204 85.8276C178.383 85.8195 178.542 85.8154 178.68 85.8154C179.014 85.8154 179.29 85.9253 179.51 86.145C179.73 86.3647 179.84 86.674 179.84 87.0728C179.84 87.1704 179.836 87.2843 179.828 87.4146C179.828 87.5448 179.819 87.6709 179.803 87.793C180.08 87.5244 180.393 87.2681 180.743 87.0239C181.093 86.7798 181.471 86.5641 181.878 86.377C182.293 86.1816 182.737 86.027 183.209 85.9131C183.681 85.7992 184.181 85.7422 184.71 85.7422C185.744 85.7422 186.647 85.9131 187.42 86.2549C188.202 86.5885 188.853 87.0768 189.373 87.7197C189.902 88.3545 190.297 89.1357 190.557 90.0635C190.826 90.9912 190.96 92.0451 190.96 93.2251C190.96 93.5832 190.936 93.9575 190.887 94.3481C190.838 94.7388 190.769 95.1294 190.68 95.52C190.598 95.9106 190.496 96.3013 190.374 96.6919C190.26 97.0744 190.13 97.4365 189.984 97.7783C190.171 97.7214 190.35 97.6725 190.521 97.6318C190.692 97.5911 190.834 97.5627 190.948 97.5464C191.86 97.4569 192.315 97.8719 192.315 98.7915C192.315 98.9054 192.303 99.0316 192.279 99.1699C192.254 99.3001 192.205 99.4303 192.132 99.5605C192.059 99.6826 191.957 99.8006 191.827 99.9146C191.697 100.02 191.53 100.11 191.327 100.183L190.008 100.488C189.601 100.61 189.272 100.712 189.019 100.793C188.775 100.883 188.568 100.952 188.397 101.001C188.234 101.058 188.096 101.095 187.982 101.111C187.868 101.135 187.742 101.143 187.603 101.135C187.408 101.135 187.237 101.086 187.091 100.989C186.944 100.899 186.822 100.785 186.724 100.647C186.627 100.5 186.554 100.342 186.505 100.171C186.456 100 186.432 99.8332 186.432 99.6704C186.432 99.41 186.468 99.1455 186.541 98.877C186.615 98.6084 186.745 98.3643 186.932 98.1445C187.16 97.8516 187.351 97.522 187.506 97.1558C187.668 96.7896 187.799 96.3949 187.896 95.9717C187.994 95.5485 188.063 95.105 188.104 94.6411C188.153 94.1772 188.177 93.7052 188.177 93.2251C188.177 92.6717 188.116 92.1102 187.994 91.5405C187.88 90.9627 187.681 90.4419 187.396 89.978C187.119 89.506 186.749 89.1235 186.285 88.8306C185.829 88.5295 185.256 88.3789 184.564 88.3789C184.084 88.3789 183.612 88.4562 183.148 88.6108C182.692 88.7573 182.253 88.9567 181.829 89.209C181.414 89.4531 181.024 89.7339 180.658 90.0513C180.291 90.3687 179.97 90.6942 179.693 91.0278C179.685 91.394 179.677 91.7643 179.669 92.1387C179.669 92.5049 179.669 92.8752 179.669 93.2495C179.653 93.8843 179.64 94.515 179.632 95.1416C179.624 95.7682 179.62 96.403 179.62 97.0459C179.62 97.2331 179.62 97.4243 179.62 97.6196C179.62 97.8068 179.628 98.0062 179.644 98.2178L179.974 98.1201C180.064 98.0957 180.149 98.0754 180.23 98.0591C180.32 98.0347 180.397 98.0225 180.462 98.0225C180.902 98.0225 181.235 98.1323 181.463 98.3521C181.691 98.5636 181.805 98.877 181.805 99.292C181.805 99.6012 181.744 99.8494 181.622 100.037C181.5 100.216 181.345 100.358 181.158 100.464C180.971 100.562 180.763 100.631 180.536 100.671C180.316 100.712 180.1 100.745 179.889 100.769C179.775 100.785 179.665 100.798 179.559 100.806C179.453 100.822 179.364 100.842 179.29 100.867C179.03 100.94 178.806 101.001 178.619 101.05C178.432 101.107 178.269 101.135 178.131 101.135C177.651 101.135 177.321 101.025 177.142 100.806C176.971 100.586 176.886 100.277 176.886 99.8779Z" fill="black"/>
<defs>
<linearGradient id="paint0_linear_349_3" x1="130.368" y1="0.812256" x2="130.368" y2="183.75" gradientUnits="userSpaceOnUse">
<stop stop-color="#EE59BB" stop-opacity="0.99"/>
<stop offset="1" stop-color="#FDC603"/>
</linearGradient>
</defs>
</svg>
